/* XPM */
static char * C:\Users\andre\Desktop\cake_XPM[] = {
"16 16 17 1",
" 	c None",
".	c #D5C8AC",
"+	c #F5E6C6",
"@	c #FFF8E2",
"#	c #FFFDFE",
"$	c #B02132",
"%	c #D3212D",
"&	c #F0735A",
"*	c #E83535",
"=	c #6F3218",
"-	c #97491A",
";	c #3D1D0B",
">	c #8D4324",
",	c #A75320",
"'	c #B85D27",
")	c #C76124",
"!	c #AF5823",
"                ",
"    ........    ",
"  ..+@@@@@@+..  ",
" .+##$#%%####+. ",
".+#$#@%&*%#$##+.",
".@##@#.*%.#@#*@.",
".+##*@+..@@##@+.",
".+@@######*#@++.",
"=+@@@@@@+@++++.=",
"=-+@@@@@+++++.=;",
"=>,+@@@+++@+,>=;",
"=-'',+,',>+>,,=;",
" =-)')')'!!,,>; ",
"  ==')))'),>;;  ",
"    ;;;;;;;;    ",
"                "};
